<?xml version="1.0" encoding="UTF-8"?>
<svg width="22px" height="22px" viewBox="0 0 22 22" version="1.1" xmlns="http://www.w3.org/2000/svg" xmlns:xlink="http://www.w3.org/1999/xlink">
    <!-- Generator: sketchtool 52.1 (67048) - http://www.bohemiancoding.com/sketch -->
    <title>31C4E8EE-2695-42E6-9DF9-0FDEA75A7A9A</title>
    <desc>Created with sketchtool.</desc>
    <g id="desctop-/-tablet" stroke="none" stroke-width="1" fill="none" fill-rule="evenodd">
        <g id="Главная" transform="translate(-1134.000000, -4764.000000)" fill="#FFFFFF">
            <g id="Group-9" transform="translate(0.000000, 4744.000000)">
                <path d="M1135.21428,20 C1134.54405,20 1134,20.5429838 1134,21.2142811 L1134,40.7850054 C1134,41.4563027 1134.54405,42 1135.21428,42 L1145.7505,42 L1145.7505,33.4802919 L1142.88372,33.4802919 L1142.88372,30.1597189 L1145.7505,30.1597189 L1145.7505,27.7108216 C1145.7505,24.8697297 1147.48541,23.3218811 1150.0204,23.3218811 C1151.23575,23.3218811 1152.27784,23.4127351 1152.58179,23.4522162 L1152.58179,26.4219784 L1150.82346,26.4226919 C1149.44507,26.4226919 1149.17917,27.0780541 1149.17917,28.0390378 L1149.17917,30.1585297 L1152.46775,30.1585297 L1152.03774,33.4789838 L1149.17881,33.4789838 L1149.17881,41.9989297 L1154.78465,41.9989297 C1155.45547,41.9989297 1156,41.4545189 1156,40.7850054 L1156,21.2135676 C1155.99964,20.5429838 1155.45595,20 1154.78501,20 L1135.21428,20 Z" id="Fill-3"></path>
            </g>
        </g>
    </g>
</svg>