<?xml version="1.0" encoding="UTF-8"?>
<svg width="22px" height="22px" viewBox="0 0 22 22" version="1.1" xmlns="http://www.w3.org/2000/svg" xmlns:xlink="http://www.w3.org/1999/xlink">
    <!-- Generator: sketchtool 52.1 (67048) - http://www.bohemiancoding.com/sketch -->
    <title>A563AE00-2760-425A-8BD9-AB8769978351</title>
    <desc>Created with sketchtool.</desc>
    <g id="desctop-/-tablet" stroke="none" stroke-width="1" fill="none" fill-rule="evenodd">
        <g id="Главная" transform="translate(-1218.000000, -4764.000000)" fill="#FFFFFF">
            <g id="Group-9" transform="translate(0.000000, 4744.000000)">
                <path d="M1239.51451,24.0280986 C1239.82116,24.8959054 1239.97597,25.8099498 1239.97221,26.7302579 C1240.01567,27.8928002 1240.00825,28.2698748 1239.94928,31.235565 C1239.8903,34.2012551 1239.86805,34.5706994 1239.79298,35.7381389 C1239.75625,36.6453501 1239.56551,37.5396923 1239.22897,38.3831277 C1238.63073,39.838925 1237.44589,40.9756153 1235.965,41.514635 C1235.10746,41.816773 1234.20462,41.9715433 1233.29528,41.9721127 C1232.13086,42.0157309 1231.75302,42.0082144 1228.78224,41.9493357 C1225.81146,41.8904569 1225.44139,41.8682492 1224.27183,41.7933126 C1223.36124,41.7446836 1222.46559,41.5418536 1221.6231,41.1933643 C1220.16492,40.5960352 1219.02616,39.4133352 1218.48622,37.9348747 C1218.18356,37.0789119 1218.02853,36.1777366 1218.02784,35.2697281 C1217.98426,34.1072997 1217.99179,33.7301112 1218.05077,30.764421 C1218.10975,27.7987309 1218.13188,27.4292866 1218.20706,26.2617333 C1218.2438,25.3546359 1218.43454,24.4602937 1218.77108,23.6169722 C1219.36921,22.161061 1220.55416,21.0243707 1222.03505,20.4854649 C1222.89259,20.183213 1223.79531,20.0285566 1224.70477,20.0277594 C1225.86919,19.9842552 1226.24703,19.9918855 1229.2178,20.0506503 C1232.18858,20.109643 1232.55866,20.1317368 1233.72822,20.2066734 C1234.63687,20.2434584 1235.53275,20.4337609 1236.37763,20.7697229 C1237.83593,21.366938 1238.97468,22.549752 1239.51451,24.0280986 Z M1237.80262,35.573005 L1237.81745,35.5732328 C1237.8924,34.413082 1237.89867,34.0951139 1237.95754,31.1369402 C1238.0164,28.1785387 1238.00808,27.8529403 1237.9791,26.6981422 C1237.984,26.0058327 1237.86981,25.3179648 1237.64165,24.6642625 C1237.29188,23.7018168 1236.55069,22.9318375 1235.6012,22.5448549 C1234.95596,22.2911182 1234.27193,22.1500141 1233.57889,22.1273509 C1232.40226,22.0373815 1232.09846,22.0314594 1229.1351,21.9726945 C1226.17173,21.9139297 1225.84546,21.9222433 1224.68868,21.9511702 C1223.9953,21.9462731 1223.30614,22.0602724 1222.65131,22.2881572 C1221.68391,22.6347105 1220.90952,23.3750796 1220.52085,24.3247701 C1220.26417,24.9759669 1220.12248,25.6665681 1220.10229,26.3659384 C1220.01216,27.5405526 1220.00612,27.8438295 1219.94737,30.8020032 C1219.8885,33.7602908 1219.89683,34.0860031 1219.92569,35.2408012 C1219.9209,35.9329968 1220.03498,36.6209786 1220.26326,37.2746809 C1220.61383,38.2391765 1221.3582,39.0097253 1222.31112,39.3943163 C1222.95636,39.6479391 1223.64039,39.7891571 1224.33355,39.8118203 C1225.51006,39.9016758 1225.81386,39.9077118 1228.77722,39.9663628 C1231.74059,40.0251276 1232.06686,40.0169279 1233.22352,39.988001 C1233.91702,39.9928981 1234.60607,39.8788988 1235.26101,39.651014 C1236.22499,39.3018414 1236.99629,38.5619278 1237.38405,37.6140595 C1237.64074,36.9629765 1237.78231,36.2724892 1237.80262,35.573005 Z M1234.98018,23.9603709 C1235.70436,23.9747205 1236.27979,24.572505 1236.26541,25.2954497 C1236.25104,26.0183943 1235.65234,26.5928323 1234.92804,26.5784828 C1234.20386,26.5641332 1233.62843,25.9663486 1233.64281,25.2435179 C1233.65718,24.5204594 1234.25599,23.9460213 1234.98018,23.9603709 Z M1229.10482,25.3606604 C1232.21021,25.4221586 1234.67778,27.9852638 1234.61606,31.0854526 C1234.55446,34.1856415 1231.98696,36.6488692 1228.88145,36.5872571 C1225.77605,36.525759 1223.30849,33.9627677 1223.3702,30.8625789 C1223.43181,27.76239 1225.99931,25.2990484 1229.10482,25.3606604 Z M1228.92058,34.6201143 C1230.93776,34.6600881 1232.60539,33.0601119 1232.64543,31.0463899 C1232.68547,29.032668 1231.08275,27.3678909 1229.06557,27.3279171 C1227.04851,27.2879434 1225.38088,28.8879196 1225.34084,30.9016416 C1225.30079,32.9152496 1226.9034,34.5800267 1228.92058,34.6201143 Z" id="Combined-Shape"></path>
            </g>
        </g>
    </g>
</svg>