<?xml version="1.0" encoding="UTF-8"?>
<svg width="22px" height="22px" viewBox="0 0 22 22" version="1.1" xmlns="http://www.w3.org/2000/svg" xmlns:xlink="http://www.w3.org/1999/xlink">
    <!-- Generator: sketchtool 52.1 (67048) - http://www.bohemiancoding.com/sketch -->
    <title>297FB6B7-CA21-482C-B9D2-BC7C52FA14F6</title>
    <desc>Created with sketchtool.</desc>
    <g id="desctop-/-tablet" stroke="none" stroke-width="1" fill="none" fill-rule="evenodd">
        <g id="Главная" transform="translate(-1176.000000, -4764.000000)" fill="#FFFFFF">
            <g id="Group-9" transform="translate(0.000000, 4744.000000)">
                <path d="M1193.76214,35.6979167 L1192.15797,35.6979167 C1191.54621,35.6979167 1191.36689,35.2100208 1190.27926,34.1223958 C1189.32742,33.2045833 1188.91961,33.0856458 1188.68162,33.0856458 C1188.35873,33.0856458 1188.26214,33.1770833 1188.26214,33.6354167 L1188.26214,35.074125 C1188.26214,35.46875 1188.13598,35.6979167 1187.1163,35.6979167 C1185.4168,35.6979167 1183.54921,34.6662083 1182.22359,32.76275 C1180.23511,29.975625 1179.6913,27.8682083 1179.6913,27.4433333 C1179.6913,27.2054583 1179.78297,26.9895833 1180.2413,26.9895833 L1181.84547,26.9895833 C1182.25545,26.9895833 1182.40968,27.1690208 1182.56345,27.6132604 C1183.348,29.8987396 1184.67086,31.8960417 1185.21468,31.8960417 C1185.41864,31.8960417 1185.51214,31.8020833 1185.51214,31.2841667 L1185.51214,28.9219167 C1185.45255,27.8341771 1184.87482,27.7450313 1184.87482,27.3584271 C1184.87482,27.178875 1185.02814,26.9895833 1185.28297,26.9895833 L1187.8038,26.9895833 C1188.14377,26.9895833 1188.26214,27.1714271 1188.26214,27.5792292 L1188.26214,30.7574271 C1188.26214,31.0972812 1188.40972,31.2162187 1188.5117,31.2162187 C1188.71566,31.2162187 1188.88558,31.0972812 1189.25947,30.7233958 C1190.41516,29.4316979 1191.23087,27.4433333 1191.23087,27.4433333 C1191.33285,27.2054583 1191.52089,26.9895833 1191.9288,26.9895833 L1193.53297,26.9895833 C1194.01811,26.9895833 1194.12009,27.239375 1194.01811,27.5792292 C1193.81416,28.514 1191.85971,31.2672083 1191.85971,31.2672083 C1191.68978,31.5391146 1191.62183,31.675125 1191.85971,31.9810625 C1192.02964,32.2189375 1192.59052,32.6948021 1192.96441,33.1366354 C1193.65351,33.9117917 1194.1728,34.5658333 1194.31752,35.0166042 C1194.44964,35.46875 1194.22047,35.6979167 1193.76214,35.6979167 M1190.37333,20 L1183.62667,20 C1177.46667,20 1176,21.4667813 1176,27.6267812 L1176,34.3733333 C1176,40.5333333 1177.46667,42 1183.62667,42 L1190.37333,42 C1196.53345,42 1198,40.5333333 1198,34.3733333 L1198,27.6267812 C1198,21.4667813 1196.53345,20 1190.37333,20" id="Fill-1"></path>
            </g>
        </g>
    </g>
</svg>